<svg width="512" height="512" viewBox="0 0 512 512" fill="none" xmlns="http://www.w3.org/2000/svg">
<g clip-path="url(#clip0)">
<path d="M458.667 85.3333H53.3333C23.936 85.3333 0 109.248 0 138.667V373.333C0 402.752 23.936 426.667 53.3333 426.667H458.667C488.064 426.667 512 402.752 512 373.333V138.667C512 109.248 488.064 85.3333 458.667 85.3333ZM490.667 373.333C490.667 390.976 476.309 405.333 458.667 405.333H53.3333C35.6907 405.333 21.3333 390.976 21.3333 373.333V138.667C21.3333 121.024 35.6907 106.667 53.3333 106.667H458.667C476.309 106.667 490.667 121.024 490.667 138.667V373.333Z" fill="#E5E5E5"/>
<path d="M117.333 149.333H74.6667C68.7787 149.333 64 154.112 64 160C64 165.888 68.7787 170.667 74.6667 170.667H117.333C123.221 170.667 128 165.888 128 160C128 154.112 123.221 149.333 117.333 149.333Z" fill="#E5E5E5"/>
<path d="M437.333 341.333H394.667C388.779 341.333 384 346.112 384 352C384 357.888 388.779 362.667 394.667 362.667H437.333C443.221 362.667 448 357.888 448 352C448 346.112 443.221 341.333 437.333 341.333Z" fill="#E5E5E5"/>
<path d="M272.32 278.955L218.517 245.333H229.333C255.808 245.333 277.333 223.787 277.333 197.333C277.333 170.88 255.808 149.333 229.333 149.333H181.333C175.445 149.333 170.667 154.112 170.667 160V234.517V234.816V288C170.667 293.888 175.445 298.667 181.333 298.667C187.221 298.667 192 293.888 192 288V253.909L261.013 297.024C262.763 298.155 264.725 298.667 266.667 298.667C270.229 298.667 273.707 296.896 275.712 293.653C278.827 288.661 277.312 282.091 272.32 278.955V278.955ZM192 170.667H229.333C244.032 170.667 256 182.635 256 197.333C256 212.032 244.032 224 229.333 224H192V170.667Z" fill="#E5E5E5"/>
<path d="M336 213.333H288C282.112 213.333 277.333 218.112 277.333 224V352C277.333 357.888 282.112 362.667 288 362.667C293.888 362.667 298.667 357.888 298.667 352V309.333H336C362.475 309.333 384 287.787 384 261.333C384 234.88 362.475 213.333 336 213.333ZM336 288H298.667V234.667H336C350.699 234.667 362.667 246.635 362.667 261.333C362.667 276.032 350.699 288 336 288Z" fill="#E5E5E5"/>
</g>
<defs>
<clipPath id="clip0">
<rect width="512" height="512" fill="white"/>
</clipPath>
</defs>
</svg>
