<svg width="25" height="25" viewBox="0 0 25 25" fill="none" xmlns="http://www.w3.org/2000/svg">
<g clip-path="url(#clip0)">
<path d="M18.5056 7.86133V2.83203C18.5056 1.53751 19.555 0.488281 20.8494 0.488281C22.1439 0.488281 23.1931 1.53751 23.1931 2.83203V6.88477C23.1931 7.42416 22.756 7.86133 22.2166 7.86133H18.5056Z" fill="#FEDA9B"/>
<path d="M20.8494 0.488281H4.15039C2.85587 0.488281 1.80664 1.53751 1.80664 2.83203V20.8982C1.80664 21.4376 2.2438 21.8748 2.7832 21.8748H18.5057V2.83203C18.5057 1.53751 19.5551 0.488281 20.8494 0.488281Z" fill="white"/>
<path d="M14.3066 24.5115L13.5881 22.7875C13.3371 22.1851 13.208 21.5387 13.208 20.886V17.1001C13.208 16.5281 13.6717 16.0645 14.2437 16.0645C14.6894 16.0645 15.0852 16.3496 15.2262 16.7727L15.9622 18.9804C16.1398 19.5133 16.6386 19.8729 17.2005 19.8729C17.9214 19.8729 18.5057 19.2886 18.5057 18.5677V9.01871L19.9915 10.5017C21.2389 11.747 21.94 13.4373 21.94 15.1999V20.3903C21.94 21.8159 21.623 23.2235 21.0123 24.5115" fill="#FFD0BB"/>
<path d="M7.06396 6.25H4.91553C4.64583 6.25 4.42725 6.03142 4.42725 5.76172V3.61328C4.42725 3.34358 4.64583 3.125 4.91553 3.125H7.06396C7.33347 3.125 7.55225 3.34358 7.55225 3.61328V5.76172C7.55225 6.03142 7.33347 6.25 7.06396 6.25Z" fill="#36D28F"/>
<path d="M7.06396 12.1094H4.91553C4.64583 12.1094 4.42725 11.8908 4.42725 11.6211V9.47266C4.42725 9.20296 4.64583 8.98438 4.91553 8.98438H7.06396C7.33347 8.98438 7.55225 9.20296 7.55225 9.47266V11.6211C7.55225 11.8908 7.33347 12.1094 7.06396 12.1094Z" fill="#36D28F"/>
<path d="M7.06396 17.9686H4.91553C4.64583 17.9686 4.42725 17.75 4.42725 17.4803V15.332C4.42725 15.0623 4.64583 14.8438 4.91553 14.8438H7.06396C7.33347 14.8438 7.55225 15.0623 7.55225 15.332V17.4803C7.55225 17.75 7.33347 17.9686 7.06396 17.9686V17.9686Z" fill="#36D28F"/>
<path d="M20.8494 0H4.15039C2.58884 0 1.31836 1.27048 1.31836 2.83203V20.8982C1.31836 21.706 1.97544 22.3631 2.7832 22.3631H9.1959C9.4656 22.3631 9.68418 22.1445 9.68418 21.8748C9.68418 21.6051 9.4656 21.3865 9.1959 21.3865H2.7832C2.51389 21.3865 2.29492 21.1676 2.29492 20.8982V2.83203C2.29492 1.80893 3.12729 0.976562 4.15039 0.976562H18.7126C18.2802 1.474 18.0174 2.12269 18.0174 2.83203V18.5677C18.0174 19.0182 17.651 19.3846 17.2005 19.3846C16.8484 19.3846 16.5369 19.1601 16.4253 18.8261L15.6895 16.6182C15.4818 15.9948 14.9006 15.5762 14.2437 15.5762C13.4033 15.5762 12.7197 16.2598 12.7197 17.1V17.4803H10.1889C9.91917 17.4803 9.70058 17.6991 9.70058 17.9686C9.70058 18.2383 9.91917 18.4568 10.1889 18.4568H12.7197V20.886C12.7197 21.607 12.8603 22.3101 13.1376 22.9753L13.8559 24.6994C13.9341 24.8869 14.1155 25 14.3068 25C14.3694 25 14.4331 24.988 14.4943 24.9624C14.7434 24.8587 14.8611 24.5728 14.7573 24.3238L14.039 22.5998C13.8117 22.0541 13.6963 21.4775 13.6963 20.8862V17.1001C13.6963 16.7982 13.9418 16.5527 14.2437 16.5527C14.4796 16.5527 14.6885 16.703 14.7631 16.927L15.4989 19.1349C15.7434 19.8683 16.4272 20.3611 17.2005 20.3611C18.1894 20.3611 18.9939 19.5566 18.9939 18.5677V10.1961L19.6465 10.8473C20.8107 12.0092 21.4518 13.5551 21.4518 15.1999V20.3903C21.4518 21.7348 21.1472 23.0875 20.5711 24.3023C20.4556 24.5459 20.5595 24.8371 20.8031 24.9527C21.0466 25.0683 21.3379 24.9645 21.4535 24.7208C22.0911 23.3761 22.4283 21.8786 22.4283 20.3903V15.1999C22.4283 13.2938 21.6854 11.5026 20.3363 10.1561L18.9939 8.81615V8.34961H22.2166C23.0244 8.34961 23.6814 7.69253 23.6814 6.88477V2.83203C23.6814 1.27048 22.4112 0 20.8494 0V0ZM22.7049 6.88477C22.7049 7.15389 22.4859 7.37305 22.2166 7.37305H18.9939V2.83203C18.9939 1.80893 19.8263 0.976562 20.8494 0.976562C21.8725 0.976562 22.7049 1.80893 22.7049 2.83203V6.88477Z" fill="black"/>
<path d="M11.3281 21.3865C11.1996 21.3865 11.0737 21.4388 10.9829 21.5296C10.8921 21.6206 10.8398 21.7465 10.8398 21.8748C10.8398 22.0034 10.8921 22.1293 10.9829 22.22C11.0737 22.3108 11.1996 22.3631 11.3281 22.3631C11.4565 22.3631 11.5824 22.3108 11.6734 22.22C11.7641 22.1293 11.8164 22.0034 11.8164 21.8748C11.8164 21.7465 11.7641 21.6206 11.6734 21.5296C11.5824 21.4388 11.4565 21.3865 11.3281 21.3865Z" fill="black"/>
<path d="M8.04053 3.61328C8.04053 3.07484 7.60241 2.63672 7.06396 2.63672H4.91553C4.37689 2.63672 3.93896 3.07484 3.93896 3.61328V5.76172C3.93896 6.30016 4.37689 6.73828 4.91553 6.73828H7.06396C7.60241 6.73828 8.04053 6.30016 8.04053 5.76172V3.61328ZM7.06396 5.76172H4.91553V3.61328H7.06396L7.06454 5.76172C7.06454 5.76172 7.06435 5.76172 7.06396 5.76172Z" fill="black"/>
<path d="M8.04053 9.47266C8.04053 8.93421 7.60241 8.49609 7.06396 8.49609H4.91553C4.37689 8.49609 3.93896 8.93421 3.93896 9.47266V11.6211C3.93896 12.1595 4.37689 12.5977 4.91553 12.5977H7.06396C7.60241 12.5977 8.04053 12.1595 8.04053 11.6211V9.47266ZM7.06396 11.6211H4.91553V9.47266H7.06396L7.06454 11.6211C7.06454 11.6211 7.06435 11.6211 7.06396 11.6211Z" fill="black"/>
<path d="M7.06396 14.3555H4.91553C4.37689 14.3555 3.93896 14.7934 3.93896 15.332V17.4803C3.93896 18.0189 4.37689 18.4568 4.91553 18.4568H7.06396C7.60241 18.4568 8.04053 18.0189 8.04053 17.4803V15.332C8.04053 14.7934 7.60241 14.3555 7.06396 14.3555ZM7.06396 17.4803H4.91553V15.332H7.06396L7.06454 17.4803C7.06454 17.4803 7.06435 17.4803 7.06396 17.4803Z" fill="black"/>
<path d="M15.7877 6.73828C16.0574 6.73828 16.276 6.5197 16.276 6.25C16.276 5.9803 16.0574 5.76172 15.7877 5.76172H12.4216C12.1519 5.76172 11.9333 5.9803 11.9333 6.25C11.9333 6.5197 12.1519 6.73828 12.4216 6.73828H15.7877Z" fill="black"/>
<path d="M10.189 6.73828C10.3175 6.73828 10.4434 6.68602 10.5342 6.59523C10.625 6.50444 10.6772 6.37836 10.6772 6.25C10.6772 6.12164 10.625 5.99556 10.5342 5.90477C10.4434 5.81398 10.3175 5.76172 10.189 5.76172C10.06 5.76172 9.93452 5.81398 9.84373 5.90477C9.75256 5.99556 9.70068 6.12164 9.70068 6.25C9.70068 6.37836 9.75256 6.50444 9.84373 6.59523C9.93452 6.68602 10.06 6.73828 10.189 6.73828Z" fill="black"/>
<path d="M10.1887 12.5977H15.7877C16.0574 12.5977 16.276 12.3791 16.276 12.1094C16.276 11.8397 16.0574 11.6211 15.7877 11.6211H10.1887C9.91921 11.6211 9.70044 11.8397 9.70044 12.1094C9.70044 12.3791 9.91921 12.5977 10.1887 12.5977V12.5977Z" fill="black"/>
</g>
<defs>
<clipPath id="clip0">
<rect width="25" height="25" fill="white"/>
</clipPath>
</defs>
</svg>
