<svg width="24" height="25" viewBox="0 0 24 25" fill="none" xmlns="http://www.w3.org/2000/svg">
<path d="M21.7238 18.5217V8.6769C21.7238 8.47456 21.5599 8.3106 21.3575 8.3106C21.1552 8.3106 20.9912 8.47456 20.9912 8.6769V18.3231C20.9441 18.316 20.8968 18.3102 20.8495 18.3052C20.8328 18.3034 20.8161 18.302 20.7993 18.3004C20.7634 18.2972 20.7274 18.2944 20.6913 18.2922C20.6753 18.2912 20.6592 18.2902 20.643 18.2895C20.592 18.2872 20.5409 18.2856 20.4896 18.2856C20.4337 18.2856 20.378 18.2871 20.3226 18.2898C20.3042 18.2907 20.286 18.2926 20.2677 18.2938C20.2309 18.2962 20.1942 18.2986 20.1577 18.3021C20.1361 18.3043 20.1146 18.3072 20.0931 18.3098C20.0603 18.3137 20.0275 18.3175 19.995 18.3223C19.9723 18.3256 19.9498 18.3298 19.9272 18.3336C19.8963 18.3389 19.8654 18.3441 19.8347 18.3502C19.8116 18.3548 19.7888 18.36 19.7659 18.3651C19.7362 18.3716 19.7065 18.3783 19.6771 18.3856C19.654 18.3914 19.6312 18.3976 19.6083 18.4038C19.5795 18.4117 19.5507 18.4197 19.5222 18.4283C19.4995 18.4352 19.4768 18.4424 19.4543 18.4498C19.4261 18.459 19.398 18.4684 19.3701 18.4783C19.3479 18.4862 19.3258 18.4943 19.3038 18.5026C19.2761 18.5131 19.2486 18.524 19.2213 18.5353C19.1996 18.5441 19.178 18.5531 19.1566 18.5624C19.1294 18.5742 19.1025 18.5866 19.0756 18.5991C19.0547 18.6088 19.0339 18.6185 19.0132 18.6287C18.9862 18.642 18.9595 18.656 18.9329 18.6699C18.9131 18.6804 18.8932 18.6906 18.8737 18.7014C18.8465 18.7164 18.8199 18.7321 18.7932 18.7477C18.7747 18.7586 18.7561 18.7692 18.7379 18.7804C18.7101 18.7975 18.6829 18.8153 18.6556 18.8332C18.6392 18.8439 18.6225 18.8543 18.6064 18.8653C18.5758 18.8861 18.5459 18.9078 18.5161 18.9295C18.5038 18.9385 18.4912 18.947 18.4791 18.9561C18.3955 19.0188 18.3149 19.0854 18.2375 19.1556C18.226 19.166 18.215 19.177 18.2037 19.1875C18.1769 19.2125 18.1503 19.2374 18.1244 19.2631C18.1107 19.2767 18.0975 19.2909 18.084 19.3047C18.0612 19.3282 18.0385 19.3516 18.0163 19.3757C18.0022 19.3912 17.9885 19.4071 17.9746 19.4229C17.954 19.4462 17.9335 19.4694 17.9136 19.4933C17.8995 19.5101 17.886 19.5271 17.8723 19.5442C17.8533 19.5678 17.8345 19.5915 17.8162 19.6156C17.8026 19.6334 17.7894 19.6515 17.7763 19.6696C17.7587 19.6937 17.7413 19.7179 17.7244 19.7425C17.7115 19.7611 17.699 19.78 17.6865 19.7989C17.6702 19.8237 17.6541 19.8487 17.6384 19.8739C17.6264 19.8933 17.6145 19.9127 17.6028 19.9323C17.5877 19.9578 17.5729 19.9836 17.5583 20.0096C17.5473 20.0294 17.5362 20.0494 17.5255 20.0695C17.5114 20.096 17.4978 20.1228 17.4844 20.1496C17.4743 20.1699 17.4642 20.1901 17.4545 20.2106C17.4414 20.2381 17.429 20.2659 17.4168 20.2937C17.4078 20.3142 17.3987 20.3346 17.3901 20.3552C17.3781 20.3841 17.3668 20.4133 17.3556 20.4426C17.3478 20.4628 17.3398 20.4828 17.3324 20.5032C17.3212 20.5341 17.311 20.5655 17.3006 20.5968C17.2943 20.6161 17.2876 20.6351 17.2816 20.6545C17.2706 20.6899 17.2608 20.7258 17.2511 20.7618C17.2468 20.7775 17.242 20.793 17.238 20.8087C17.2246 20.8607 17.2124 20.9133 17.2016 20.9663C17.201 20.9689 17.2006 20.9716 17.2001 20.9743C17.1899 21.0245 17.1808 21.0751 17.1729 21.126C17.1701 21.144 17.1682 21.1623 17.1657 21.1803C17.1613 21.2122 17.1565 21.2439 17.153 21.276H0.975634C0.841601 21.276 0.732568 21.167 0.732568 21.033V6.44565H3.84936C4.05171 6.44565 4.21567 6.28169 4.21567 6.07935C4.21567 5.877 4.05171 5.71304 3.84936 5.71304H0.732568V3.03237C0.732568 2.89834 0.841601 2.78936 0.975634 2.78936H3.66528V3.33716C3.66528 3.88916 4.1143 4.33823 4.66631 4.33823C5.21836 4.33823 5.66743 3.88916 5.66743 3.33716V2.78931H16.0561V3.33711C16.0561 3.88911 16.5052 4.33818 17.0572 4.33818C17.6092 4.33818 18.0583 3.88911 18.0583 3.33711V2.78931H20.7479C20.882 2.78931 20.9911 2.89834 20.9911 3.03232V5.71299H5.16811C4.96577 5.71299 4.8018 5.87695 4.8018 6.0793C4.8018 6.28164 4.96577 6.44561 5.16811 6.44561H20.9912V7.35835C20.9912 7.56069 21.1552 7.72466 21.3576 7.72466C21.5599 7.72466 21.7239 7.56069 21.7239 7.35835V6.0793V3.03237C21.7239 2.49438 21.2862 2.05674 20.7481 2.05674H18.0585V1.00107C18.0584 0.449072 17.6093 0 17.0573 0C16.5053 0 16.0562 0.449072 16.0562 1.00107V2.05669H5.66748V1.00107C5.66748 0.449072 5.21836 0 4.66635 0C4.11435 0 3.66533 0.449072 3.66533 1.00107V2.05669H0.975683C0.437695 2.05669 0 2.49438 0 3.03232V6.0793V21.0334C0 21.5714 0.437695 22.0091 0.975683 22.0091L17.1529 22.0091C17.336 23.6885 18.7623 25 20.4897 25C22.3408 25 23.8468 23.4939 23.8468 21.6428C23.8468 20.2273 22.9658 19.0146 21.7238 18.5217ZM16.7889 1.00107C16.7889 0.853027 16.9093 0.732617 17.0573 0.732617C17.2053 0.732617 17.3258 0.853076 17.3258 1.00107V2.42295V3.33706C17.3258 3.48511 17.2053 3.60552 17.0573 3.60552C16.9093 3.60552 16.7889 3.48506 16.7889 3.33706V2.423V1.00107ZM4.39795 1.00107C4.39795 0.853027 4.51841 0.732617 4.66635 0.732617C4.8144 0.732617 4.93486 0.853076 4.93486 1.00107V2.42295V3.33706C4.93486 3.48511 4.81435 3.60552 4.66635 3.60552C4.51836 3.60552 4.39795 3.48506 4.39795 3.33706V2.423V1.00107ZM20.4896 24.2674C19.0424 24.2674 17.865 23.09 17.865 21.6428C17.865 20.1956 19.0424 19.0182 20.4896 19.0182C20.5297 19.0182 20.5696 19.0194 20.6093 19.0213C20.6215 19.0218 20.6336 19.0225 20.6458 19.0233C20.675 19.025 20.7039 19.0272 20.7329 19.0299C20.7448 19.031 20.7566 19.032 20.7685 19.0332C20.8059 19.0372 20.8431 19.0419 20.88 19.0474C20.8922 19.0492 20.9044 19.0515 20.9166 19.0535C20.9431 19.0579 20.9694 19.0625 20.9956 19.0676C21.0102 19.0705 21.0247 19.0734 21.0392 19.0766C21.0666 19.0824 21.0938 19.0888 21.1209 19.0955C21.1311 19.098 21.1414 19.1003 21.1516 19.1029C22.2793 19.3971 23.1141 20.4242 23.1141 21.6428C23.1142 23.09 21.9368 24.2674 20.4896 24.2674Z" fill="#CFD4D9"/>
<path d="M21.871 20.7921C21.719 20.6584 21.4876 20.6731 21.354 20.8251L20.2693 22.0576L19.6516 21.4493C19.5075 21.3073 19.2756 21.309 19.1336 21.4532C18.9916 21.5974 18.9934 21.8293 19.1375 21.9713L20.0313 22.8515C20.0999 22.9191 20.1923 22.9568 20.2883 22.9568C20.2927 22.9568 20.297 22.9567 20.3014 22.9566C20.402 22.953 20.4968 22.9082 20.5633 22.8325L21.9039 21.3091C22.0376 21.1572 22.0229 20.9257 21.871 20.7921Z" fill="#CFD4D9"/>
<path d="M12.0707 13.8224L12.9473 11.9289C13.0159 11.7807 12.9781 11.605 12.8547 11.4981L11.1016 9.97998C10.964 9.86084 10.7596 9.86084 10.622 9.97998L8.86886 11.4981C8.74542 11.6051 8.70763 11.7807 8.77628 11.9289L9.65284 13.8224C9.71281 13.952 9.84254 14.0349 9.98527 14.0349H11.7383C11.881 14.0349 12.0108 13.952 12.0707 13.8224ZM10.2194 13.3022L9.557 11.8715L10.8619 10.7416L12.1667 11.8715L11.5043 13.3023H10.2194V13.3022H10.2194Z" fill="#CFD4D9"/>
<path d="M14.6626 15.2203C15.2026 14.5567 15.5728 13.7498 15.7058 12.8661C15.7059 12.8653 15.7062 12.8646 15.7063 12.8638C15.7073 12.8574 15.7079 12.8509 15.7088 12.8445C15.7156 12.7982 15.7217 12.7517 15.7271 12.7049C15.7286 12.6919 15.7302 12.679 15.7315 12.666C15.7375 12.6117 15.7427 12.5571 15.7468 12.5023C15.7471 12.4988 15.7472 12.4954 15.7475 12.4919C15.7512 12.4407 15.754 12.3892 15.7561 12.3377C15.7567 12.3244 15.7572 12.3111 15.7576 12.2979C15.7594 12.2432 15.7607 12.1884 15.7607 12.1333C15.7607 12.0784 15.7595 12.0237 15.7576 11.9693C15.7571 11.9545 15.7565 11.9398 15.756 11.9251C15.754 11.8776 15.7514 11.8304 15.7481 11.7833C15.7475 11.7753 15.7471 11.7672 15.7465 11.7593C15.7426 11.7079 15.7377 11.6568 15.7322 11.6059C15.7302 11.587 15.728 11.5682 15.7257 11.5493C15.7214 11.5133 15.7167 11.4773 15.7116 11.4415C15.7083 11.4177 15.7048 11.3939 15.7011 11.3702C15.695 11.3311 15.6884 11.292 15.6814 11.2532C15.6764 11.2258 15.671 11.1986 15.6656 11.1713C15.6615 11.1509 15.6573 11.1306 15.6529 11.1103C15.6305 11.0045 15.6045 10.8998 15.5752 10.796C15.5746 10.7941 15.5741 10.7922 15.5736 10.7904C15.4312 10.2898 15.2095 9.81304 14.9117 9.37652C14.9054 9.36729 14.8981 9.35899 14.8911 9.3504C14.2877 8.47945 13.4096 7.8129 12.3831 7.47672C12.3797 7.47554 12.3767 7.47383 12.3733 7.47276C12.362 7.4691 12.3504 7.46597 12.3391 7.46236C12.2956 7.44859 12.252 7.43531 12.208 7.42276C12.1898 7.41758 12.1715 7.41275 12.1533 7.40772C12.1144 7.39708 12.0754 7.38692 12.0361 7.37725C12.019 7.37305 12.0021 7.36876 11.985 7.3647C11.9342 7.35279 11.8832 7.34156 11.8318 7.33131C11.8177 7.32842 11.8036 7.32588 11.7894 7.32315C11.7438 7.31436 11.6981 7.30621 11.652 7.29869C11.6408 7.29688 11.6298 7.29493 11.6187 7.29317C11.5646 7.28477 11.51 7.2774 11.4553 7.27076C11.4419 7.26915 11.4285 7.26763 11.4151 7.26612C11.3635 7.26026 11.3116 7.25508 11.2595 7.25093C11.2542 7.25049 11.2488 7.24991 11.2435 7.24952C11.1874 7.24517 11.1309 7.2421 11.0743 7.23961C11.0608 7.23902 11.0473 7.23858 11.0337 7.23809C10.9767 7.23609 10.9194 7.23477 10.8619 7.23477C10.8044 7.23477 10.7471 7.23609 10.69 7.23809C10.6765 7.23858 10.6628 7.23907 10.6493 7.23961C10.5928 7.2421 10.5363 7.24517 10.4803 7.24952C10.4747 7.24996 10.4691 7.25054 10.4634 7.25098C10.4117 7.25518 10.3603 7.26031 10.3091 7.26612C10.2954 7.26763 10.2816 7.2692 10.2679 7.27086C10.2135 7.27745 10.1593 7.28477 10.1055 7.29317C10.0938 7.29498 10.0822 7.29708 10.0705 7.29898C10.0252 7.30635 9.98018 7.31436 9.93531 7.32296C9.92061 7.32584 9.90591 7.32847 9.89127 7.33145C9.84034 7.34175 9.78965 7.35284 9.73931 7.36465C9.72178 7.36881 9.7042 7.37325 9.68672 7.37754C9.6481 7.38712 9.60967 7.39708 9.57139 7.40757C9.55215 7.4128 9.53296 7.41793 9.51378 7.4234C9.47051 7.4358 9.42759 7.44883 9.38477 7.46246C9.37339 7.46602 9.36177 7.4692 9.3504 7.47286C9.34708 7.47398 9.344 7.47564 9.34073 7.47681C8.31436 7.8129 7.43643 8.4793 6.83296 9.35005C6.82574 9.35875 6.81837 9.36724 6.81192 9.37672C6.51407 9.81339 6.29234 10.2903 6.15001 10.791C6.14957 10.7926 6.14908 10.7942 6.14864 10.7959C6.1192 10.8999 6.09322 11.0048 6.07076 11.1107C6.06646 11.1309 6.06216 11.151 6.05811 11.1713C6.05269 11.1986 6.04732 11.226 6.04234 11.2535C6.03526 11.2925 6.02867 11.3317 6.02252 11.371C6.01885 11.3944 6.01544 11.418 6.01211 11.4416C6.00704 11.4773 6.0023 11.5133 5.998 11.5495C5.99576 11.5684 5.99351 11.5872 5.99151 11.6061C5.98604 11.657 5.98111 11.7081 5.9772 11.7594C5.97657 11.7674 5.97623 11.7755 5.97569 11.7836C5.97237 11.8306 5.96978 11.8778 5.96778 11.9251C5.96714 11.9399 5.96661 11.9547 5.96612 11.9695C5.96431 12.024 5.96304 12.0786 5.96304 12.1335C5.96304 12.1885 5.96426 12.2433 5.96612 12.2979C5.96656 12.3112 5.9671 12.3245 5.96763 12.3378C5.96973 12.3887 5.97247 12.4395 5.97613 12.49C5.97642 12.4942 5.97662 12.4985 5.97696 12.5027C5.98101 12.5569 5.98614 12.6108 5.992 12.6646C5.99351 12.6788 5.99522 12.693 5.99688 12.7073C6.00201 12.7508 6.00767 12.7941 6.01387 12.8373C6.01514 12.8461 6.01602 12.855 6.01734 12.8638C6.01749 12.8649 6.01788 12.8659 6.01807 12.867C6.15352 13.7653 6.53375 14.5844 7.08848 15.2541C7.09459 15.2628 7.1004 15.2717 7.10738 15.28C7.72081 16.0112 8.5212 16.5388 9.41514 16.8142C9.45289 16.8259 9.49087 16.8372 9.52906 16.848C9.55909 16.8564 9.58921 16.8646 9.61949 16.8725C9.6689 16.8854 9.71856 16.8977 9.76856 16.9091C9.79014 16.9141 9.81187 16.9187 9.83355 16.9233C9.89122 16.9357 9.94922 16.9472 10.0077 16.9576C10.0214 16.96 10.0352 16.9621 10.049 16.9645C10.1145 16.9754 10.1803 16.9854 10.2465 16.9938C10.2483 16.994 10.2501 16.9943 10.2519 16.9945C10.253 16.9947 10.2542 16.9946 10.2553 16.9947C10.4541 17.0194 10.6566 17.0323 10.862 17.0323C11.2477 17.0323 11.623 16.9874 11.9832 16.9027C11.9853 16.9023 11.9873 16.9021 11.9893 16.9017C12.0003 16.8991 12.0111 16.8959 12.0221 16.8932C12.063 16.8832 12.1038 16.8728 12.1443 16.8617C12.1622 16.8569 12.18 16.8523 12.1978 16.8472C12.2465 16.8334 12.2949 16.8186 12.3431 16.8033C12.3623 16.7972 12.3814 16.791 12.4005 16.7846C12.45 16.7682 12.4993 16.7513 12.5481 16.7334C12.5604 16.7288 12.5727 16.7239 12.585 16.7193C12.63 16.7023 12.6748 16.6847 12.7192 16.6664C12.7308 16.6616 12.7425 16.657 12.7541 16.6521C12.8058 16.6304 12.857 16.6077 12.9078 16.5842C12.9194 16.5789 12.931 16.5734 12.9426 16.5679C12.9945 16.5435 13.0461 16.5184 13.097 16.4921C13.1036 16.4888 13.1101 16.4852 13.1166 16.4818C13.163 16.4577 13.2089 16.4327 13.2545 16.4071C13.2656 16.4009 13.2767 16.3948 13.2877 16.3885C13.3333 16.3625 13.3783 16.3356 13.4231 16.3081C13.4404 16.2974 13.4578 16.2865 13.475 16.2755C13.5093 16.2539 13.5434 16.2317 13.5772 16.2092C13.607 16.1893 13.6365 16.169 13.6658 16.1484C13.6832 16.1363 13.7005 16.124 13.7177 16.1117C14.0593 15.8666 14.3707 15.5783 14.6402 15.2523C14.6483 15.2419 14.6555 15.2311 14.6626 15.2203ZM14.6813 10.4716C14.7407 10.6076 14.7937 10.747 14.8385 10.89C14.8403 10.8958 14.842 10.9017 14.8438 10.9074C14.8612 10.9638 14.8773 11.0208 14.8923 11.0782C14.8958 11.0913 14.899 11.1045 14.9023 11.1177C14.9149 11.1678 14.9266 11.2184 14.9374 11.2693C14.9414 11.2884 14.9452 11.3076 14.949 11.3268C14.9579 11.372 14.966 11.4174 14.9734 11.4633C14.9773 11.4871 14.981 11.5109 14.9844 11.5348C14.9904 11.5765 14.9957 11.6185 15.0004 11.6607C15.0035 11.6878 15.0065 11.7148 15.0091 11.742C15.0128 11.7818 15.0156 11.8219 15.0183 11.862C15.0201 11.891 15.0221 11.9199 15.0233 11.949C15.0238 11.9599 15.0238 11.9709 15.0242 11.9819L14.3716 11.3411L14.6813 10.4716ZM10.4301 7.98946C10.4362 7.98882 10.4423 7.98834 10.4485 7.9877C10.5128 7.98135 10.5775 7.97632 10.6427 7.97291C10.6486 7.97261 10.6544 7.97247 10.6603 7.97217C10.7251 7.9691 10.7903 7.96729 10.8559 7.96719C10.8599 7.96719 10.8638 7.96719 10.8677 7.96719C10.9333 7.96729 10.9985 7.96905 11.0633 7.97217C11.0692 7.97247 11.0751 7.97261 11.081 7.97291C11.1461 7.97628 11.2108 7.98135 11.2752 7.9877C11.2813 7.98834 11.2874 7.98882 11.2936 7.98946C11.2998 7.99009 11.3059 7.99112 11.3121 7.9918L10.8618 8.2793L10.4116 7.9918C10.4178 7.99112 10.4239 7.99009 10.4301 7.98946ZM7.35191 11.3411L6.69952 11.9818C6.69991 11.9708 6.69986 11.9598 6.70035 11.9488C6.70157 11.9199 6.70357 11.8911 6.70543 11.8623C6.70801 11.822 6.71085 11.7818 6.71465 11.7418C6.71714 11.7148 6.72017 11.6878 6.7232 11.6609C6.72803 11.6186 6.73326 11.5765 6.73931 11.5345C6.74273 11.5108 6.74644 11.4872 6.75025 11.4636C6.75767 11.4176 6.76583 11.3719 6.77481 11.3264C6.77852 11.3074 6.78228 11.2885 6.78629 11.2695C6.79708 11.2185 6.80879 11.1677 6.82149 11.1173C6.82471 11.1044 6.82794 11.0914 6.83126 11.0785C6.84634 11.0208 6.8626 10.9636 6.88008 10.9069C6.88174 10.9014 6.88336 10.8959 6.88506 10.8903C6.92989 10.7471 6.98292 10.6078 7.04234 10.4717L7.35191 11.3411ZM8.22769 15.3583L9.15709 15.2995L9.59234 16.1011C9.08931 15.9398 8.62759 15.6856 8.22769 15.3583ZM10.5257 16.2848L9.68926 14.7443C9.6212 14.6189 9.48624 14.5446 9.34424 14.5535L7.55757 14.6667C7.17325 14.1665 6.89971 13.5773 6.77393 12.9356L8.03218 11.7C8.13399 11.6 8.16846 11.4502 8.12061 11.3157L7.52461 9.64205C8.00191 9.0043 8.65757 8.50757 9.41685 8.22593L10.6648 9.02266C10.7249 9.06104 10.7935 9.08023 10.862 9.08023C10.9304 9.08023 10.999 9.06104 11.0591 9.02266L12.3071 8.22593C13.0663 8.50757 13.722 9.00425 14.1993 9.64195L13.6032 11.3157C13.5554 11.4502 13.5899 11.6 13.6917 11.7L14.95 12.9357C14.8264 13.5662 14.5606 14.1462 14.1868 14.6407L12.8115 14.5536C12.6696 14.5447 12.5345 14.619 12.4664 14.7443L11.6643 16.2213C11.4046 16.2722 11.1365 16.2996 10.8621 16.2996C10.7486 16.2995 10.6367 16.2937 10.5257 16.2848ZM12.8579 15.7892C12.8503 15.7934 12.8426 15.7975 12.835 15.8017C12.7851 15.8286 12.7344 15.8544 12.6834 15.8794L12.9984 15.2995L13.5267 15.3329C13.3197 15.5056 13.0959 15.6587 12.8579 15.7892Z" fill="#CFD4D9"/>
<path d="M14.0163 17.7723H7.70743C7.50509 17.7723 7.34113 17.9362 7.34113 18.1386C7.34113 18.3409 7.50509 18.5049 7.70743 18.5049H14.0163C14.2186 18.5049 14.3826 18.3409 14.3826 18.1386C14.3826 17.9362 14.2186 17.7723 14.0163 17.7723Z" fill="#CFD4D9"/>
<path d="M14.0163 19.0418H7.70743C7.50509 19.0418 7.34113 19.2058 7.34113 19.4081C7.34113 19.6104 7.50509 19.7745 7.70743 19.7745H14.0163C14.2186 19.7745 14.3826 19.6104 14.3826 19.4081C14.3826 19.2058 14.2186 19.0418 14.0163 19.0418Z" fill="#CFD4D9"/>
</svg>
