<svg width="25" height="25" viewBox="0 0 25 25" fill="none" xmlns="http://www.w3.org/2000/svg">
<path d="M18.1329 21.6428C18.1329 19.991 19.4721 18.6519 21.1239 18.6519C21.4257 18.6519 21.7169 18.6971 21.9918 18.7803V3.03238C21.9918 2.69586 21.719 2.42305 21.3823 2.42305H18.3264V3.33716C18.3264 3.6878 18.0421 3.97193 17.6915 3.97193C17.341 3.97193 17.0568 3.6878 17.0568 3.33716V2.423H5.93534V3.33712C5.93534 3.68775 5.65111 3.97188 5.30052 3.97188C4.94994 3.97188 4.66581 3.68775 4.66581 3.33712V2.423H1.6098C1.27323 2.423 1.00043 2.69586 1.00043 3.03233V21.0334C1.00043 21.3699 1.27323 21.6428 1.6098 21.6428H18.1329Z" fill="#E8EAED"/>
<path d="M2.71556 21.0335V3.03239C2.71556 2.69587 2.98837 2.42307 3.32494 2.42307H1.6098C1.27323 2.42307 1.00043 2.69592 1.00043 3.03239V21.0335C1.00043 21.37 1.27323 21.6428 1.6098 21.6428H3.32489C2.98837 21.6428 2.71556 21.37 2.71556 21.0335Z" fill="#BABABA"/>
<path d="M21.3823 2.423H18.3263V3.33712C18.3263 3.68775 18.042 3.97188 17.6915 3.97188C17.3409 3.97188 17.0568 3.68775 17.0568 3.33712V2.423H5.93534V3.33712C5.93534 3.68775 5.65111 3.97188 5.30052 3.97188C4.94994 3.97188 4.66581 3.68775 4.66581 3.33712V2.423H1.6098C1.27323 2.423 1.00043 2.69586 1.00043 3.03233V6.0793H21.9917V3.03238C21.9917 2.69586 21.7188 2.423 21.3823 2.423Z" fill="#EF443C"/>
<path d="M2.71556 3.03239C2.71556 2.69587 2.98837 2.42307 3.32494 2.42307H1.6098C1.27323 2.42307 1.00043 2.69592 1.00043 3.03239V6.07936H2.71552V3.03239H2.71556Z" fill="#E23A2D"/>
<path d="M21.0747 24.5849C22.7266 24.5849 24.0657 23.2458 24.0657 21.5939C24.0657 19.942 22.7266 18.6029 21.0747 18.6029C19.4228 18.6029 18.0837 19.942 18.0837 21.5939C18.0837 23.2458 19.4228 24.5849 21.0747 24.5849Z" fill="#3BBC56"/>
<path d="M20.1354 20.9102C20.1354 19.9835 20.557 19.1553 21.2187 18.6067C21.1711 18.6045 21.1232 18.6031 21.075 18.6031C19.4232 18.6031 18.0841 19.9422 18.0841 21.594C18.0841 23.2458 19.4232 24.5849 21.075 24.5849C21.8001 24.5849 22.4648 24.3268 22.9826 23.8975C21.3975 23.8225 20.1354 22.5138 20.1354 20.9102Z" fill="#25A039"/>
<path d="M11.4961 16.596C13.9993 16.596 16.0285 14.5668 16.0285 12.0636C16.0285 9.56042 13.9993 7.53119 11.4961 7.53119C8.9929 7.53119 6.96367 9.56042 6.96367 12.0636C6.96367 14.5668 8.9929 16.596 11.4961 16.596Z" fill="#4A94CC"/>
<path d="M12.8286 7.73007C11.7287 8.55712 11.0173 9.87294 11.0173 11.355C11.0173 13.3946 12.3644 15.1192 14.2173 15.6884C15.3172 14.8614 16.0286 13.5456 16.0286 12.0634C16.0286 10.024 14.6814 8.29921 12.8286 7.73007Z" fill="#56ADE2"/>
<path d="M10.6194 13.5986L9.74295 11.7051L11.4961 10.187L13.2491 11.7051L12.3725 13.5986H10.6194Z" fill="#6EDCF9"/>
<path d="M11.4961 10.187L11.0908 10.5379C11.0425 10.8029 11.0173 11.076 11.0173 11.355C11.0173 12.1713 11.2336 12.937 11.6113 13.5986H12.3725L13.2491 11.7051L11.4961 10.187Z" fill="#A7F0FC"/>
<path d="M10.0976 7.75112L11.496 8.64404L12.8943 7.75112C12.4539 7.60825 11.9839 7.53085 11.496 7.53085C11.008 7.5308 10.5381 7.60825 10.0976 7.75112Z" fill="#6EDCF9"/>
<path d="M7.74877 9.51288C7.25331 10.2395 6.96347 11.1175 6.96347 12.0634C6.96347 12.2932 6.98071 12.5188 7.01367 12.7395L8.40966 11.3686L7.74877 9.51288Z" fill="#6EDCF9"/>
<path d="M14.5822 11.3686L15.9783 12.7395C16.0113 12.5189 16.0285 12.2932 16.0285 12.0634C16.0285 11.1176 15.7386 10.2394 15.2431 9.51288L14.5822 11.3686Z" fill="#A7F0FC"/>
<path d="M10.9311 16.562L10.0015 14.85L8.02217 14.9755C8.73951 15.8306 9.7667 16.4171 10.9311 16.562Z" fill="#6EDCF9"/>
<path d="M12.5394 16.4749C13.517 16.2448 14.3726 15.6979 14.9918 14.9485L13.4222 14.8491L12.5394 16.4749Z" fill="#6EDCF9"/>
<path d="M13.4222 14.8491L13.2112 15.2377C13.5239 15.4264 13.8609 15.5789 14.2169 15.6882C14.2564 15.6585 14.2954 15.6283 14.3339 15.5974C14.3456 15.588 14.357 15.5784 14.3686 15.569C14.4 15.5432 14.4312 15.5169 14.462 15.4902C14.4741 15.4797 14.4863 15.4693 14.4982 15.4587C14.5375 15.424 14.5764 15.3887 14.6144 15.3525C14.6221 15.3453 14.6296 15.3377 14.6373 15.3304C14.6686 15.3001 14.6996 15.2695 14.7301 15.2384C14.7423 15.226 14.7544 15.2135 14.7665 15.2009C14.7966 15.1695 14.8263 15.1378 14.8554 15.1056C14.8626 15.0976 14.8701 15.0898 14.8772 15.0818C14.9119 15.043 14.9457 15.0035 14.9791 14.9634C14.9832 14.9585 14.9871 14.9536 14.9912 14.9486L13.4222 14.8491Z" fill="#A7F0FC"/>
<path d="M5.30049 3.97187C4.9499 3.97187 4.66577 3.68774 4.66577 3.3371V1.00107C4.66577 0.650433 4.9499 0.366302 5.30049 0.366302C5.65107 0.366302 5.9353 0.650433 5.9353 1.00107V3.33705C5.93535 3.68769 5.65107 3.97187 5.30049 3.97187Z" fill="#E8EAED"/>
<path d="M17.6914 3.97187C17.3408 3.97187 17.0567 3.68774 17.0567 3.3371V1.00107C17.0567 0.650433 17.3408 0.366302 17.6914 0.366302C18.042 0.366302 18.3262 0.650433 18.3262 1.00107V3.33705C18.3263 3.68769 18.042 3.97187 17.6914 3.97187Z" fill="#E8EAED"/>
<path d="M5.30293 3.33704V1.00106C5.30293 0.76673 5.43017 0.562531 5.61909 0.45257C5.52544 0.398029 5.41675 0.366241 5.30053 0.366241C4.94995 0.366241 4.66582 0.650372 4.66582 1.00101V3.33699C4.66582 3.68763 4.94995 3.97176 5.30053 3.97176C5.41679 3.97176 5.52539 3.94002 5.61909 3.88543C5.43022 3.77557 5.30293 3.57142 5.30293 3.33704Z" fill="#BABABA"/>
<path d="M17.6938 3.33704V1.00106C17.6938 0.76673 17.8211 0.562531 18.01 0.45257C17.9163 0.398029 17.8076 0.366241 17.6914 0.366241C17.3408 0.366241 17.0567 0.650372 17.0567 1.00101V3.33699C17.0567 3.68763 17.3408 3.97176 17.6914 3.97176C17.8077 3.97176 17.9163 3.94002 18.01 3.88543C17.8211 3.77557 17.6938 3.57142 17.6938 3.33704Z" fill="#BABABA"/>
<path d="M22.3004 18.5217V8.6769C22.3004 8.47456 22.1364 8.3106 21.9341 8.3106C21.7318 8.3106 21.5678 8.47456 21.5678 8.6769V18.3231C21.5207 18.316 21.4734 18.3102 21.4261 18.3052C21.4094 18.3034 21.3927 18.302 21.3759 18.3004C21.34 18.2972 21.304 18.2944 21.2679 18.2922C21.2519 18.2912 21.2358 18.2902 21.2196 18.2895C21.1686 18.2872 21.1175 18.2856 21.0662 18.2856C21.0103 18.2856 20.9546 18.2871 20.8992 18.2898C20.8808 18.2907 20.8626 18.2926 20.8443 18.2938C20.8075 18.2962 20.7708 18.2986 20.7343 18.3021C20.7127 18.3043 20.6912 18.3072 20.6697 18.3098C20.6369 18.3137 20.6041 18.3175 20.5716 18.3223C20.5489 18.3256 20.5264 18.3298 20.5038 18.3336C20.4729 18.3389 20.442 18.3441 20.4113 18.3502C20.3882 18.3548 20.3654 18.36 20.3425 18.3651C20.3128 18.3716 20.2831 18.3783 20.2537 18.3856C20.2306 18.3914 20.2078 18.3976 20.1849 18.4038C20.1561 18.4117 20.1273 18.4197 20.0988 18.4283C20.0761 18.4352 20.0534 18.4424 20.0309 18.4498C20.0027 18.459 19.9746 18.4684 19.9467 18.4783C19.9245 18.4862 19.9024 18.4943 19.8804 18.5026C19.8527 18.5131 19.8252 18.524 19.7979 18.5353C19.7762 18.5441 19.7546 18.5531 19.7332 18.5624C19.706 18.5742 19.6791 18.5866 19.6522 18.5991C19.6313 18.6088 19.6105 18.6185 19.5898 18.6287C19.5628 18.642 19.5361 18.656 19.5095 18.6699C19.4897 18.6804 19.4698 18.6906 19.4503 18.7014C19.4231 18.7164 19.3965 18.7321 19.3698 18.7477C19.3513 18.7586 19.3327 18.7692 19.3145 18.7804C19.2867 18.7975 19.2595 18.8153 19.2322 18.8332C19.2158 18.8439 19.1991 18.8543 19.183 18.8653C19.1524 18.8861 19.1225 18.9078 19.0927 18.9295C19.0804 18.9385 19.0678 18.947 19.0557 18.9561C18.9721 19.0188 18.8915 19.0854 18.8141 19.1556C18.8026 19.166 18.7916 19.177 18.7803 19.1875C18.7535 19.2125 18.7269 19.2374 18.701 19.2631C18.6873 19.2767 18.6741 19.2909 18.6606 19.3047C18.6378 19.3282 18.6151 19.3516 18.5929 19.3757C18.5788 19.3912 18.5651 19.4071 18.5512 19.4229C18.5306 19.4462 18.5101 19.4694 18.4902 19.4933C18.4761 19.5101 18.4626 19.5271 18.4489 19.5442C18.4299 19.5678 18.4111 19.5915 18.3928 19.6156C18.3792 19.6334 18.366 19.6515 18.3529 19.6696C18.3353 19.6937 18.3179 19.7179 18.301 19.7425C18.2881 19.7611 18.2756 19.78 18.2631 19.7989C18.2468 19.8237 18.2307 19.8487 18.215 19.8739C18.203 19.8933 18.1911 19.9127 18.1794 19.9323C18.1643 19.9578 18.1495 19.9836 18.1349 20.0096C18.1239 20.0294 18.1128 20.0494 18.1021 20.0695C18.088 20.096 18.0744 20.1228 18.061 20.1496C18.0509 20.1699 18.0407 20.1901 18.0311 20.2106C18.018 20.2381 18.0056 20.2659 17.9934 20.2937C17.9844 20.3142 17.9753 20.3346 17.9667 20.3552C17.9547 20.3841 17.9434 20.4133 17.9322 20.4426C17.9244 20.4628 17.9164 20.4828 17.909 20.5032C17.8978 20.5341 17.8876 20.5655 17.8772 20.5968C17.8709 20.6161 17.8642 20.6351 17.8582 20.6545C17.8472 20.6899 17.8374 20.7258 17.8277 20.7618C17.8234 20.7775 17.8186 20.793 17.8146 20.8087C17.8012 20.8607 17.789 20.9133 17.7782 20.9663C17.7776 20.9689 17.7772 20.9716 17.7767 20.9743C17.7665 21.0245 17.7574 21.0751 17.7495 21.126C17.7467 21.144 17.7448 21.1623 17.7423 21.1803C17.7379 21.2122 17.7331 21.2439 17.7296 21.276H1.55223C1.4182 21.276 1.30917 21.167 1.30917 21.033V6.44565H4.42596C4.62831 6.44565 4.79227 6.28169 4.79227 6.07935C4.79227 5.877 4.62831 5.71304 4.42596 5.71304H1.30917V3.03237C1.30917 2.89834 1.4182 2.78936 1.55223 2.78936H4.24188V3.33716C4.24188 3.88916 4.6909 4.33823 5.2429 4.33823C5.79496 4.33823 6.24403 3.88916 6.24403 3.33716V2.78931H16.6327V3.33711C16.6327 3.88911 17.0818 4.33818 17.6338 4.33818C18.1858 4.33818 18.6349 3.88911 18.6349 3.33711V2.78931H21.3245C21.4586 2.78931 21.5677 2.89834 21.5677 3.03232V5.71299H5.74471C5.54237 5.71299 5.3784 5.87695 5.3784 6.0793C5.3784 6.28164 5.54237 6.44561 5.74471 6.44561H21.5678V7.35835C21.5678 7.56069 21.7318 7.72466 21.9342 7.72466C22.1365 7.72466 22.3005 7.56069 22.3005 7.35835V6.0793V3.03237C22.3005 2.49438 21.8628 2.05674 21.3247 2.05674H18.6351V1.00107C18.635 0.449072 18.1859 0 17.6339 0C17.0819 0 16.6328 0.449072 16.6328 1.00107V2.05669H6.24408V1.00107C6.24408 0.449072 5.79496 0 5.24295 0C4.69095 0 4.24193 0.449072 4.24193 1.00107V2.05669H1.55228C1.01429 2.05669 0.576599 2.49438 0.576599 3.03232V6.0793V21.0334C0.576599 21.5714 1.01429 22.0091 1.55228 22.0091L17.7295 22.0091C17.9126 23.6885 19.3389 25 21.0663 25C22.9174 25 24.4234 23.4939 24.4234 21.6428C24.4234 20.2273 23.5424 19.0146 22.3004 18.5217ZM17.3655 1.00107C17.3655 0.853027 17.4859 0.732617 17.6339 0.732617C17.7819 0.732617 17.9024 0.853076 17.9024 1.00107V2.42295V3.33706C17.9024 3.48511 17.7819 3.60552 17.6339 3.60552C17.4859 3.60552 17.3655 3.48506 17.3655 3.33706V2.423V1.00107ZM4.97455 1.00107C4.97455 0.853027 5.095 0.732617 5.24295 0.732617C5.391 0.732617 5.51146 0.853076 5.51146 1.00107V2.42295V3.33706C5.51146 3.48511 5.39095 3.60552 5.24295 3.60552C5.09496 3.60552 4.97455 3.48506 4.97455 3.33706V2.423V1.00107ZM21.0662 24.2674C19.619 24.2674 18.4416 23.09 18.4416 21.6428C18.4416 20.1956 19.619 19.0182 21.0662 19.0182C21.1063 19.0182 21.1462 19.0194 21.1859 19.0213C21.1981 19.0218 21.2102 19.0225 21.2224 19.0233C21.2516 19.025 21.2805 19.0272 21.3095 19.0299C21.3214 19.031 21.3332 19.032 21.3451 19.0332C21.3825 19.0372 21.4197 19.0419 21.4566 19.0474C21.4688 19.0492 21.481 19.0515 21.4932 19.0535C21.5197 19.0579 21.546 19.0625 21.5722 19.0676C21.5868 19.0705 21.6013 19.0734 21.6158 19.0766C21.6432 19.0824 21.6704 19.0888 21.6975 19.0955C21.7077 19.098 21.718 19.1003 21.7281 19.1029C22.8559 19.3971 23.6907 20.4242 23.6907 21.6428C23.6908 23.09 22.5134 24.2674 21.0662 24.2674Z" fill="#231F20"/>
<path d="M22.4476 20.7921C22.2956 20.6584 22.0642 20.6731 21.9306 20.825L20.8459 22.0576L20.2282 21.4493C20.0841 21.3073 19.8522 21.309 19.7102 21.4532C19.5682 21.5974 19.57 21.8292 19.7141 21.9713L20.6079 22.8515C20.6765 22.9191 20.7689 22.9568 20.8649 22.9568C20.8693 22.9568 20.8736 22.9567 20.878 22.9566C20.9786 22.953 21.0734 22.9081 21.1399 22.8325L22.4805 21.3091C22.6142 21.1572 22.5995 20.9257 22.4476 20.7921Z" fill="#231F20"/>
<path d="M12.6473 13.8224L13.5239 11.9289C13.5925 11.7807 13.5547 11.605 13.4313 11.4981L11.6782 9.97998C11.5406 9.86084 11.3362 9.86084 11.1986 9.97998L9.44546 11.4981C9.32202 11.6051 9.28423 11.7807 9.35288 11.9289L10.2294 13.8224C10.2894 13.952 10.4191 14.0349 10.5619 14.0349H12.3149C12.4576 14.0349 12.5874 13.952 12.6473 13.8224ZM10.796 13.3022L10.1336 11.8715L11.4385 10.7416L12.7433 11.8715L12.0809 13.3023H10.796V13.3022H10.796Z" fill="#231F20"/>
<path d="M15.2392 15.2203C15.7792 14.5567 16.1494 13.7498 16.2824 12.8661C16.2825 12.8653 16.2828 12.8646 16.2829 12.8638C16.2839 12.8574 16.2845 12.8509 16.2854 12.8445C16.2922 12.7982 16.2983 12.7517 16.3037 12.7049C16.3052 12.6919 16.3068 12.679 16.3081 12.666C16.3141 12.6117 16.3193 12.5571 16.3234 12.5023C16.3237 12.4988 16.3238 12.4954 16.3241 12.4919C16.3278 12.4407 16.3306 12.3892 16.3327 12.3377C16.3333 12.3244 16.3338 12.3111 16.3342 12.2979C16.336 12.2432 16.3373 12.1884 16.3373 12.1333C16.3373 12.0784 16.3361 12.0237 16.3342 11.9693C16.3337 11.9545 16.3331 11.9398 16.3326 11.9251C16.3306 11.8776 16.328 11.8304 16.3247 11.7833C16.3241 11.7753 16.3237 11.7672 16.3231 11.7593C16.3192 11.7079 16.3143 11.6568 16.3088 11.6059C16.3068 11.587 16.3046 11.5682 16.3023 11.5493C16.298 11.5133 16.2933 11.4773 16.2882 11.4415C16.2849 11.4177 16.2814 11.3939 16.2777 11.3702C16.2716 11.3311 16.265 11.292 16.258 11.2532C16.253 11.2258 16.2476 11.1986 16.2422 11.1713C16.2381 11.1509 16.2339 11.1306 16.2295 11.1103C16.2071 11.0045 16.1811 10.8998 16.1518 10.796C16.1512 10.7941 16.1507 10.7922 16.1502 10.7904C16.0078 10.2898 15.7861 9.81304 15.4883 9.37652C15.482 9.36729 15.4747 9.35899 15.4677 9.3504C14.8643 8.47945 13.9862 7.8129 12.9597 7.47672C12.9563 7.47554 12.9533 7.47383 12.9499 7.47276C12.9386 7.4691 12.927 7.46597 12.9157 7.46236C12.8722 7.44859 12.8286 7.43531 12.7846 7.42276C12.7664 7.41758 12.7481 7.41275 12.7299 7.40772C12.691 7.39708 12.652 7.38692 12.6127 7.37725C12.5956 7.37305 12.5787 7.36876 12.5616 7.3647C12.5108 7.35279 12.4598 7.34156 12.4084 7.33131C12.3943 7.32842 12.3802 7.32588 12.366 7.32315C12.3204 7.31436 12.2747 7.30621 12.2286 7.29869C12.2174 7.29688 12.2064 7.29493 12.1953 7.29317C12.1412 7.28477 12.0866 7.2774 12.0319 7.27076C12.0185 7.26915 12.0051 7.26763 11.9917 7.26612C11.9401 7.26026 11.8882 7.25508 11.8361 7.25093C11.8308 7.25049 11.8254 7.24991 11.8201 7.24952C11.764 7.24517 11.7075 7.2421 11.6509 7.23961C11.6374 7.23902 11.6239 7.23858 11.6103 7.23809C11.5533 7.23609 11.496 7.23477 11.4385 7.23477C11.3809 7.23477 11.3237 7.23609 11.2666 7.23809C11.2531 7.23858 11.2394 7.23907 11.2259 7.23961C11.1694 7.2421 11.1129 7.24517 11.0569 7.24952C11.0513 7.24996 11.0457 7.25054 11.04 7.25098C10.9883 7.25518 10.9369 7.26031 10.8857 7.26612C10.872 7.26763 10.8582 7.2692 10.8445 7.27086C10.7901 7.27745 10.7359 7.28477 10.6821 7.29317C10.6704 7.29498 10.6588 7.29708 10.6471 7.29898C10.6018 7.30635 10.5568 7.31436 10.5119 7.32296C10.4972 7.32584 10.4825 7.32847 10.4679 7.33145C10.4169 7.34175 10.3663 7.35284 10.3159 7.36465C10.2984 7.36881 10.2808 7.37325 10.2633 7.37754C10.2247 7.38712 10.1863 7.39708 10.148 7.40757C10.1288 7.4128 10.1096 7.41793 10.0904 7.4234C10.0471 7.4358 10.0042 7.44883 9.96137 7.46246C9.94999 7.46602 9.93837 7.4692 9.92699 7.47286C9.92367 7.47398 9.9206 7.47564 9.91733 7.47681C8.89096 7.8129 8.01303 8.4793 7.40956 9.35005C7.40234 9.35875 7.39496 9.36724 7.38852 9.37672C7.09067 9.81339 6.86894 10.2903 6.7266 10.791C6.72617 10.7926 6.72568 10.7942 6.72524 10.7959C6.69579 10.8999 6.66982 11.0048 6.64736 11.1107C6.64306 11.1309 6.63876 11.151 6.63471 11.1713C6.62929 11.1986 6.62392 11.226 6.61894 11.2535C6.61186 11.2925 6.60527 11.3317 6.59911 11.371C6.59545 11.3944 6.59203 11.418 6.58871 11.4416C6.58364 11.4773 6.5789 11.5133 6.5746 11.5495C6.57236 11.5684 6.57011 11.5872 6.56811 11.6061C6.56264 11.657 6.55771 11.7081 6.5538 11.7594C6.55317 11.7674 6.55283 11.7755 6.55229 11.7836C6.54897 11.8306 6.54638 11.8778 6.54438 11.9251C6.54374 11.9399 6.54321 11.9547 6.54272 11.9695C6.54091 12.024 6.53964 12.0786 6.53964 12.1335C6.53964 12.1885 6.54086 12.2433 6.54272 12.2979C6.54316 12.3112 6.54369 12.3245 6.54423 12.3378C6.54633 12.3887 6.54907 12.4395 6.55273 12.49C6.55302 12.4942 6.55322 12.4985 6.55356 12.5027C6.55761 12.5569 6.56274 12.6108 6.5686 12.6646C6.57011 12.6788 6.57182 12.693 6.57348 12.7073C6.57861 12.7508 6.58427 12.7941 6.59047 12.8373C6.59174 12.8461 6.59262 12.855 6.59394 12.8638C6.59409 12.8649 6.59448 12.8659 6.59467 12.867C6.73012 13.7653 7.11035 14.5844 7.66508 15.2541C7.67119 15.2628 7.677 15.2717 7.68398 15.28C8.29741 16.0112 9.0978 16.5388 9.99174 16.8142C10.0295 16.8259 10.0675 16.8372 10.1057 16.848C10.1357 16.8564 10.1658 16.8646 10.1961 16.8725C10.2455 16.8854 10.2952 16.8977 10.3452 16.9091C10.3667 16.9141 10.3885 16.9187 10.4101 16.9233C10.4678 16.9357 10.5258 16.9472 10.5843 16.9576C10.598 16.96 10.6118 16.9621 10.6256 16.9645C10.6911 16.9754 10.7569 16.9854 10.8231 16.9938C10.8249 16.994 10.8267 16.9943 10.8285 16.9945C10.8296 16.9947 10.8308 16.9946 10.8319 16.9947C11.0307 17.0194 11.2332 17.0323 11.4386 17.0323C11.8243 17.0323 12.1996 16.9874 12.5598 16.9027C12.5619 16.9023 12.5639 16.9021 12.5659 16.9017C12.5769 16.8991 12.5877 16.8959 12.5987 16.8932C12.6396 16.8832 12.6804 16.8728 12.7209 16.8617C12.7388 16.8569 12.7566 16.8523 12.7744 16.8472C12.8231 16.8334 12.8715 16.8186 12.9197 16.8033C12.9389 16.7972 12.958 16.791 12.9771 16.7846C13.0266 16.7682 13.0759 16.7513 13.1247 16.7334C13.137 16.7288 13.1493 16.7239 13.1616 16.7193C13.2066 16.7023 13.2514 16.6847 13.2958 16.6664C13.3074 16.6616 13.3191 16.657 13.3307 16.6521C13.3824 16.6304 13.4336 16.6077 13.4844 16.5842C13.496 16.5789 13.5076 16.5734 13.5192 16.5679C13.5711 16.5435 13.6227 16.5184 13.6736 16.4921C13.6802 16.4888 13.6867 16.4852 13.6932 16.4818C13.7396 16.4577 13.7855 16.4327 13.8311 16.4071C13.8422 16.4009 13.8533 16.3948 13.8643 16.3885C13.9099 16.3625 13.9549 16.3356 13.9997 16.3081C14.017 16.2974 14.0344 16.2865 14.0516 16.2755C14.0859 16.2539 14.12 16.2317 14.1538 16.2092C14.1836 16.1893 14.2131 16.169 14.2424 16.1484C14.2598 16.1363 14.2771 16.124 14.2943 16.1117C14.6359 15.8666 14.9473 15.5783 15.2168 15.2523C15.2249 15.2419 15.2321 15.2311 15.2392 15.2203ZM15.2579 10.4716C15.3173 10.6076 15.3703 10.747 15.4151 10.89C15.4169 10.8958 15.4186 10.9017 15.4204 10.9074C15.4378 10.9638 15.4539 11.0208 15.4689 11.0782C15.4724 11.0913 15.4756 11.1045 15.4789 11.1177C15.4915 11.1678 15.5032 11.2184 15.514 11.2693C15.518 11.2884 15.5218 11.3076 15.5256 11.3268C15.5345 11.372 15.5426 11.4174 15.55 11.4633C15.5538 11.4871 15.5576 11.5109 15.561 11.5348C15.567 11.5765 15.5723 11.6185 15.577 11.6607C15.5801 11.6878 15.5831 11.7148 15.5857 11.742C15.5894 11.7818 15.5922 11.8219 15.5949 11.862C15.5967 11.891 15.5987 11.9199 15.5999 11.949C15.6004 11.9599 15.6004 11.9709 15.6008 11.9819L14.9482 11.3411L15.2579 10.4716ZM11.0067 7.98946C11.0128 7.98882 11.0189 7.98834 11.0251 7.9877C11.0894 7.98135 11.1541 7.97632 11.2193 7.97291C11.2252 7.97261 11.231 7.97247 11.2369 7.97217C11.3017 7.9691 11.3669 7.96729 11.4325 7.96719C11.4365 7.96719 11.4404 7.96719 11.4443 7.96719C11.5099 7.96729 11.5751 7.96905 11.6399 7.97217C11.6458 7.97247 11.6517 7.97261 11.6576 7.97291C11.7227 7.97628 11.7874 7.98135 11.8518 7.9877C11.8579 7.98834 11.864 7.98882 11.8702 7.98946C11.8764 7.99009 11.8825 7.99112 11.8887 7.9918L11.4384 8.2793L10.9882 7.9918C10.9944 7.99112 11.0005 7.99009 11.0067 7.98946ZM7.92851 11.3411L7.27612 11.9818C7.27651 11.9708 7.27646 11.9598 7.27695 11.9488C7.27817 11.9199 7.28017 11.8911 7.28202 11.8623C7.28461 11.822 7.28744 11.7818 7.29125 11.7418C7.29374 11.7148 7.29677 11.6878 7.2998 11.6609C7.30463 11.6186 7.30986 11.5765 7.31591 11.5345C7.31933 11.5108 7.32304 11.4872 7.32685 11.4636C7.33427 11.4176 7.34243 11.3719 7.35141 11.3264C7.35512 11.3074 7.35888 11.2885 7.36288 11.2695C7.37368 11.2185 7.38539 11.1677 7.39809 11.1173C7.40131 11.1044 7.40453 11.0914 7.40785 11.0785C7.42294 11.0208 7.4392 10.9636 7.45668 10.9069C7.45834 10.9014 7.45995 10.8959 7.46166 10.8903C7.50649 10.7471 7.55951 10.6078 7.61894 10.4717L7.92851 11.3411ZM8.80429 15.3583L9.73368 15.2995L10.1689 16.1011C9.66591 15.9398 9.20419 15.6856 8.80429 15.3583ZM11.1023 16.2848L10.2659 14.7443C10.1978 14.6189 10.0628 14.5446 9.92084 14.5535L8.13417 14.6667C7.74985 14.1665 7.47631 13.5773 7.35053 12.9356L8.60878 11.7C8.71059 11.6 8.74506 11.4502 8.69721 11.3157L8.10121 9.64205C8.57851 9.0043 9.23417 8.50757 9.99345 8.22593L11.2414 9.02266C11.3015 9.06104 11.3701 9.08023 11.4386 9.08023C11.507 9.08023 11.5756 9.06104 11.6357 9.02266L12.8837 8.22593C13.6429 8.50757 14.2986 9.00425 14.7759 9.64195L14.1798 11.3157C14.132 11.4502 14.1665 11.6 14.2683 11.7L15.5266 12.9357C15.403 13.5662 15.1372 14.1462 14.7634 14.6407L13.3881 14.5536C13.2462 14.5447 13.1111 14.619 13.043 14.7443L12.2409 16.2213C11.9812 16.2722 11.7131 16.2996 11.4387 16.2996C11.3252 16.2995 11.2133 16.2937 11.1023 16.2848ZM13.4345 15.7892C13.4269 15.7934 13.4192 15.7975 13.4116 15.8017C13.3617 15.8286 13.311 15.8544 13.26 15.8794L13.575 15.2995L14.1033 15.3329C13.8963 15.5056 13.6725 15.6587 13.4345 15.7892Z" fill="#231F20"/>
<path d="M14.5929 17.7723H8.28402C8.08167 17.7723 7.91771 17.9362 7.91771 18.1386C7.91771 18.3409 8.08167 18.5049 8.28402 18.5049H14.5929C14.7952 18.5049 14.9592 18.3409 14.9592 18.1386C14.9592 17.9362 14.7952 17.7723 14.5929 17.7723Z" fill="#231F20"/>
<path d="M14.5929 19.0418H8.28402C8.08167 19.0418 7.91771 19.2058 7.91771 19.4081C7.91771 19.6104 8.08167 19.7745 8.28402 19.7745H14.5929C14.7952 19.7745 14.9592 19.6104 14.9592 19.4081C14.9592 19.2058 14.7952 19.0418 14.5929 19.0418Z" fill="#231F20"/>
</svg>
