<svg width="25" height="25" viewBox="0 0 25 25" fill="none" xmlns="http://www.w3.org/2000/svg">
<path d="M14.9194 12.0968H10.0806V17.3387H14.9194V12.0968Z" fill="#F9E0A6"/>
<path d="M20.5645 20.9677H4.43549V24.5968H20.5645V20.9677Z" fill="#F9E0A6"/>
<path d="M19.4355 3.79032C18.598 3.1621 17.579 2.82258 16.5323 2.82258L16.6315 2.67379C17.0899 1.98629 17.7645 1.47097 18.5484 1.20968L17.8399 0.973386C16.7444 0.608467 15.5488 0.693144 14.5161 1.20968L13.9363 0.919757C13.2569 0.580241 12.5077 0.403225 11.748 0.403225C9.04557 0.403225 6.85484 2.59395 6.85484 5.29637V9.27419H18.1452V6.06935C18.1452 5.79032 18.2101 5.51492 18.3351 5.26572C18.475 4.98589 18.6855 4.74758 18.9456 4.57419L19.7581 4.03226L19.4355 3.79032Z" fill="#D3A06C"/>
<path d="M10.0806 14.2649C10.7931 14.6786 11.6181 14.9194 12.5 14.9194C13.3819 14.9194 14.2069 14.6786 14.9194 14.2649V12.0968H10.0806V14.2649Z" fill="#EABD8C"/>
<path d="M12.5 14.1129C10.273 14.1129 8.46774 12.3077 8.46774 10.0806V5.64516H16.5323V10.0806C16.5323 12.3077 14.727 14.1129 12.5 14.1129Z" fill="#F9E0A6"/>
<path d="M8.46774 7.25807H8.53589C10.0742 7.25807 11.5839 6.83992 12.9032 6.04839C12.9032 6.57863 12.7798 7.10161 12.5427 7.57621L12.5 7.66129C13.8343 7.39436 15.1125 6.90041 16.279 6.20041L16.5323 6.04839V4.43549H8.46774V7.25807Z" fill="#D3A06C"/>
<path d="M15.3226 4.03226C16.5323 4.43549 16.5323 6.04839 16.5323 6.04839V9.2742H18.1452V6.06936C18.1452 5.79032 18.2101 5.51492 18.3351 5.26573C18.475 4.98589 18.6855 4.74758 18.9456 4.5742L19.7581 4.03226L19.4355 3.79032C18.598 3.1621 17.579 2.82258 16.5323 2.82258L16.6315 2.67379C17.0899 1.98629 17.7645 1.47097 18.5484 1.20968L17.8399 0.973389C16.7444 0.608469 15.5488 0.693147 14.5161 1.20968V1.6129C15.3226 2.41936 15.3226 4.03226 15.3226 4.03226Z" fill="#B27946"/>
<path d="M8.46775 7.66129C7.57702 7.66129 6.85484 8.38347 6.85484 9.27419C6.85484 10.1649 7.57702 10.8871 8.46775 10.8871H16.5323C17.423 10.8871 18.1452 10.1649 18.1452 9.27419C18.1452 8.38347 17.423 7.66129 16.5323 7.66129H8.46775Z" fill="#F9E0A6"/>
<path d="M20.5645 20.9677H4.43549V22.5806H20.5645V20.9677Z" fill="#EABD8C"/>
<path d="M18.8097 16.0311L14.9194 14.9194C14.9194 14.9194 14.5161 16.5323 12.5 16.5323C10.4839 16.5323 10.0806 14.9194 10.0806 14.9194L6.19032 16.0311C5.15161 16.3278 4.43549 17.277 4.43549 18.3573V21.371H7.25807V24.5968H17.7419V21.371H20.5645V18.3573C20.5645 17.277 19.8484 16.3278 18.8097 16.0311Z" fill="#FB5968"/>
<path d="M18.8097 16.0311L14.9194 14.9194C14.9194 14.9194 14.823 15.2968 14.4976 15.6863L17.546 17.0931C18.4028 17.4887 18.9516 18.3464 18.9516 19.2899V21.371H20.5645V18.3573C20.5645 17.277 19.8484 16.3278 18.8097 16.0311Z" fill="#CD2C5A"/>
<path d="M18.9206 15.6431L15.3226 14.6153V13.4992C16.0125 12.9286 16.5234 12.152 16.7698 11.2661C17.7685 11.1472 18.5484 10.3044 18.5484 9.27419V6.06935C18.5484 5.85403 18.5992 5.63831 18.6956 5.44556C18.804 5.22903 18.9673 5.04355 19.1689 4.90927L20.4556 4.05161L19.6774 3.46774C18.9819 2.94597 18.1577 2.60524 17.3 2.47661C17.6762 2.07379 18.1504 1.76694 18.6754 1.59194L19.8234 1.20968L17.9669 0.590726C16.8266 0.21129 15.6109 0.272581 14.5206 0.760887L14.1169 0.559274C13.3855 0.193145 12.5665 0 11.748 0C8.82782 0 6.45161 2.37621 6.45161 5.29637V9.27419C6.45161 10.3044 7.23145 11.1472 8.23024 11.2661C8.47661 12.152 8.9875 12.9286 9.67742 13.4992V14.6153L6.07943 15.6431C4.87419 15.9871 4.03226 17.1032 4.03226 18.3569V25H20.9677V18.3569C20.9677 17.1032 20.1258 15.9871 18.9206 15.6431ZM16.9185 10.4149C16.927 10.304 16.9355 10.1935 16.9355 10.0806V8.13871C17.4036 8.30565 17.7419 8.74919 17.7419 9.27419C17.7419 9.80524 17.3956 10.2528 16.9185 10.4149ZM11.748 0.806452C12.4415 0.806452 13.1359 0.970565 13.756 1.28065L14.5161 1.66048L14.6964 1.57016C15.5657 1.13548 16.5435 1.03629 17.4746 1.28468C17.0093 1.58831 16.606 1.98468 16.296 2.45L15.7782 3.22581H16.5323C17.4298 3.22581 18.3198 3.50484 19.0573 4.01492L18.7218 4.23871C18.4036 4.45081 18.1452 4.74355 17.9742 5.08548C17.8222 5.38911 17.7419 5.72944 17.7419 6.06935V7.67137C17.5064 7.49315 17.2351 7.35968 16.9355 7.29879V5.33629L16.0718 5.85444C15.1593 6.40202 14.1831 6.81694 13.1605 7.09234C13.2564 6.75323 13.3064 6.40081 13.3064 6.04839V5.33629L12.6956 5.70282C11.5351 6.39919 10.2194 6.79194 8.87097 6.84798V6.04839H8.06451V7.29879C7.76492 7.36008 7.49355 7.49315 7.25806 7.67137V5.29637C7.25806 2.82056 9.27218 0.806452 11.748 0.806452ZM7.25806 9.27419C7.25806 8.74919 7.59637 8.30565 8.06451 8.13871V10.0806C8.06451 10.1935 8.07298 10.304 8.08145 10.4149C7.60443 10.2528 7.25806 9.80524 7.25806 9.27419ZM8.87097 10.0806V7.65484C10.1004 7.60847 11.3064 7.30685 12.4113 6.77218C12.3581 6.9875 12.281 7.19718 12.1819 7.39556L11.7706 8.21815L12.579 8.05645C13.827 7.80685 15.0194 7.36855 16.129 6.75242V10.0806C16.129 12.0815 14.5008 13.7097 12.5 13.7097C10.4992 13.7097 8.87097 12.0815 8.87097 10.0806ZM12.5 14.5161C13.2262 14.5161 13.9105 14.3371 14.5161 14.0266V14.8605C14.4472 15.0698 14.0238 16.129 12.5 16.129C10.9806 16.129 10.5564 15.0798 10.4839 14.8597V14.0266C11.0895 14.3371 11.7738 14.5161 12.5 14.5161ZM6.30081 16.419L9.83709 15.4081C10.1673 16.0798 10.977 16.9355 12.5 16.9355C14.023 16.9355 14.8327 16.0798 15.1625 15.4081L18.6992 16.419C19.5601 16.6645 20.1613 17.4617 20.1613 18.3569V20.9677H18.1452V18.5484H17.3387V24.1935H7.66129V18.5484H6.85484V20.9677H4.83871V18.3569C4.83871 17.4617 5.43992 16.6645 6.30081 16.419ZM4.83871 21.7742H6.85484V24.1935H4.83871V21.7742ZM18.1452 24.1935V21.7742H20.1613V24.1935H18.1452Z" fill="black"/>
<path d="M10.4839 9.27419C10.7066 9.27419 10.8871 9.09366 10.8871 8.87097C10.8871 8.64827 10.7066 8.46774 10.4839 8.46774C10.2612 8.46774 10.0806 8.64827 10.0806 8.87097C10.0806 9.09366 10.2612 9.27419 10.4839 9.27419Z" fill="black"/>
<path d="M14.5161 9.27419C14.7388 9.27419 14.9194 9.09366 14.9194 8.87097C14.9194 8.64827 14.7388 8.46774 14.5161 8.46774C14.2934 8.46774 14.1129 8.64827 14.1129 8.87097C14.1129 9.09366 14.2934 9.27419 14.5161 9.27419Z" fill="black"/>
<path d="M12.5 12.5C13.3895 12.5 14.1129 11.7766 14.1129 10.8871H13.3065C13.3065 11.3319 12.9448 11.6935 12.5 11.6935C12.0552 11.6935 11.6936 11.3319 11.6936 10.8871H10.8871C10.8871 11.7766 11.6105 12.5 12.5 12.5Z" fill="black"/>
<path d="M8.87097 21.371H9.67742V18.5484H8.46774V19.3548H8.87097V21.371Z" fill="black"/>
<path d="M10.8871 21.371H11.6935V18.5484H10.4839V19.3548H10.8871V21.371Z" fill="black"/>
</svg>
