<svg width="17" height="25" viewBox="0 0 17 25" fill="none" xmlns="http://www.w3.org/2000/svg">
<path d="M14.8883 15.6431L11.2903 14.6153V13.4992C11.9802 12.9286 12.4911 12.152 12.7375 11.2661C13.7363 11.1472 14.5161 10.3044 14.5161 9.27419V6.06935C14.5161 5.85403 14.5669 5.63831 14.6633 5.44556C14.7718 5.22903 14.9351 5.04355 15.1367 4.90927L16.4234 4.05161L15.6452 3.46774C14.9496 2.94597 14.1254 2.60524 13.2677 2.47661C13.6439 2.07379 14.1181 1.76694 14.6431 1.59194L15.7911 1.20968L13.9347 0.590726C12.7944 0.21129 11.5786 0.272581 10.4883 0.760887L10.0847 0.559274C9.35322 0.193145 8.53427 0 7.71572 0C4.79556 0 2.41935 2.37621 2.41935 5.29637V9.27419C2.41935 10.3044 3.19919 11.1472 4.19798 11.2661C4.44435 12.152 4.95524 12.9286 5.64516 13.4992V14.6153L2.04718 15.6431C0.841935 15.9871 0 17.1032 0 18.3569V25H16.9355V18.3569C16.9355 17.1032 16.0935 15.9871 14.8883 15.6431ZM12.8863 10.4149C12.8948 10.304 12.9032 10.1935 12.9032 10.0806V8.13871C13.3714 8.30565 13.7097 8.74919 13.7097 9.27419C13.7097 9.80524 13.3633 10.2528 12.8863 10.4149ZM3.22581 9.27419C3.22581 8.74919 3.56411 8.30565 4.03226 8.13871V10.0806C4.03226 10.1935 4.04073 10.304 4.04919 10.4149C3.57218 10.2528 3.22581 9.80524 3.22581 9.27419ZM4.03226 6.04839V7.29879C3.73266 7.36008 3.46129 7.49315 3.22581 7.67137V5.29637C3.22581 2.82056 5.23992 0.806452 7.71572 0.806452C8.40927 0.806452 9.10363 0.970565 9.72379 1.28065L10.4839 1.66048L10.6641 1.57016C11.5335 1.13548 12.5113 1.03629 13.4423 1.28468C12.977 1.58831 12.5738 1.98468 12.2637 2.45L11.746 3.22581H12.5C13.3976 3.22581 14.2875 3.50484 15.025 4.01492L14.6895 4.23871C14.3714 4.45081 14.1129 4.74355 13.9419 5.08548C13.7899 5.38911 13.7097 5.72944 13.7097 6.06935V7.67137C13.4742 7.49315 13.2028 7.35968 12.9032 7.29879V5.33629L12.0395 5.85444C11.127 6.40202 10.1508 6.81694 9.12822 7.09234C9.22419 6.75323 9.27419 6.40081 9.27419 6.04839V5.33629L8.66331 5.70282C7.50282 6.39919 6.1871 6.79194 4.83871 6.84798V6.04839H4.03226ZM4.83871 10.0806V7.65484C6.06814 7.60847 7.27419 7.30685 8.37903 6.77218C8.32581 6.9875 8.24879 7.19718 8.1496 7.39556L7.73831 8.21815L8.54677 8.05645C9.79476 7.80685 10.9871 7.36855 12.0968 6.75242V10.0806C12.0968 12.0815 10.4685 13.7097 8.46774 13.7097C6.46693 13.7097 4.83871 12.0815 4.83871 10.0806ZM10.4839 14.0266V14.8605C10.4149 15.0698 9.99153 16.129 8.46774 16.129C6.94839 16.129 6.52419 15.0798 6.45161 14.8597V14.0266C7.05726 14.3371 7.74153 14.5161 8.46774 14.5161C9.19395 14.5161 9.87822 14.3371 10.4839 14.0266ZM2.82258 24.1935H0.806451V21.7742H2.82258V24.1935ZM16.129 24.1935H14.1129V21.7742H16.129V24.1935ZM16.129 20.9677H14.1129V18.5484H13.3064V24.1935H3.62903V18.5484H2.82258V20.9677H0.806451V18.3569C0.806451 17.4617 1.40766 16.6645 2.26855 16.419L5.80484 15.4081C6.13508 16.0798 6.94476 16.9355 8.46774 16.9355C9.99072 16.9355 10.8004 16.0798 11.1302 15.4081L14.6669 16.419C15.5278 16.6645 16.129 17.4617 16.129 18.3569V20.9677Z" fill="#CFD4D9"/>
</svg>
